<svg width="79" height="21" viewBox="0 0 79 21" fill="none" xmlns="http://www.w3.org/2000/svg">
<path fill-rule="evenodd" clip-rule="evenodd" d="M10.5002 0C16.299 0 21 4.70105 21 10.5002C21 13.0823 20.0679 15.4464 18.5215 17.2747L14.8126 13.5658C14.5571 13.8817 14.2833 14.1858 13.9953 14.4734C13.2617 15.207 12.4267 15.8469 11.5478 16.3338C11.4093 16.4106 11.2697 16.4837 11.1294 16.5525V20.9809C10.9213 20.9931 10.7113 21 10.5002 21C4.70143 21 0.000382479 16.2993 0 10.5002C0 8.30782 0.672398 6.27495 1.81983 4.59204L8.22521 9.42696C7.03991 10.6643 6.10933 11.9008 5.54671 12.9339C5.01697 13.9069 4.8047 14.6256 5.03572 14.8597C5.26979 15.0907 5.98885 14.8788 6.96111 14.3491C7.93605 13.8182 9.09305 12.9595 10.2604 11.8676L9.28965 10.4072C9.11906 10.1498 8.94235 9.90544 9.18446 9.66333C9.42696 9.42122 9.67136 9.59754 9.92839 9.76774L11.3902 10.7392C12.4803 9.57344 13.3386 8.41606 13.8702 7.43921C14.4007 6.46657 14.6126 5.74751 14.3797 5.51534C14.1483 5.28356 13.4288 5.49546 12.4558 6.02519C11.4208 6.58935 10.1835 7.51839 8.94809 8.70178L4.0516 2.21417C5.83127 0.826919 8.06916 0 10.5002 0ZM6.11775 15.7914C6.52279 15.677 6.968 15.4877 7.44074 15.2299C8.66085 14.5648 10.1261 13.4437 11.5455 12.0244L11.5444 12.0232L11.5455 12.0225C12.9668 10.6008 14.0878 9.13665 14.7511 7.91884C15.0085 7.4461 15.1982 7.00127 15.3125 6.59699C16.193 8.04085 15.9058 9.86681 14.9786 11.5386C14.5407 12.3292 13.9574 13.088 13.2839 13.762C12.6099 14.4359 11.8503 15.0192 11.0601 15.4571C9.38832 16.3839 7.56161 16.6715 6.11775 15.7914Z" fill="black"/>
<path d="M32.53 4.862L37.885 4.879C40.265 4.879 41.574 6.188 41.574 8.177C41.574 9.265 41.115 10.115 40.061 10.54V10.608C41.319 11.05 41.982 12.019 41.982 13.515C41.982 15.623 40.605 17 38.089 17H32.53V4.862ZM34.4 10.013H37.613C38.973 10.013 39.67 9.367 39.67 8.228C39.67 7.089 38.973 6.443 37.613 6.443H34.4V10.013ZM34.4 15.402H37.817C39.313 15.402 40.078 14.688 40.078 13.447C40.078 12.206 39.313 11.492 37.817 11.492H34.4V15.402ZM50.3663 14.178L52.1173 14.399C51.7093 15.691 50.6213 17.221 47.9693 17.221C45.4533 17.221 43.7533 15.334 43.7533 12.546C43.7533 9.707 45.3853 7.837 47.9523 7.837C50.5703 7.837 52.3893 9.724 52.1683 12.937H45.5043C45.5553 14.569 46.4903 15.81 47.9693 15.81C49.5333 15.81 50.1283 14.824 50.3663 14.178ZM47.9523 9.231C46.4563 9.231 45.6743 10.37 45.5383 11.611H50.4173C50.2813 10.37 49.4993 9.231 47.9523 9.231ZM61.7509 15.657C61.8529 15.657 62.0229 15.64 62.1589 15.589V17C62.0059 17.051 61.5809 17.085 61.2409 17.085C60.4079 17.085 59.8469 16.796 59.6599 16.014H59.5919C58.9799 16.881 57.7389 17.204 56.7189 17.204C55.1719 17.204 53.8459 16.184 53.8459 14.535C53.8459 12.597 55.1889 11.883 57.5349 11.645C59.1499 11.475 59.5749 11.169 59.5749 10.608C59.5749 9.809 59.0989 9.248 57.8069 9.248C56.9229 9.248 56.0729 9.707 55.7499 10.761L54.1689 10.404C54.5429 8.789 55.9879 7.837 57.8579 7.837C60.4079 7.837 61.3089 9.061 61.3089 10.574V15.13C61.3089 15.572 61.5129 15.657 61.7509 15.657ZM59.5749 13.464V12.393C59.3029 12.716 58.2999 12.869 57.3479 12.988C56.4469 13.107 55.6139 13.549 55.6139 14.535C55.6139 15.351 56.1749 15.844 57.0589 15.844C58.1809 15.844 59.5749 15.147 59.5749 13.464ZM73.8986 7.837C75.4116 7.837 76.9076 8.789 76.9076 11.05V17H75.1736V11.577C75.1736 9.894 74.5106 9.282 73.3376 9.282C72.3006 9.282 71.2976 10.234 71.2976 12.07V17H69.5636V11.577C69.5636 9.894 68.9006 9.282 67.7276 9.282C66.6906 9.282 65.6876 10.234 65.6876 12.07V17H63.9536V8.041H65.6026V9.231H65.6706C66.3676 8.245 67.3026 7.837 68.2886 7.837C69.3256 7.837 70.3626 8.279 70.9066 9.299C71.7056 8.33 72.5896 7.837 73.8986 7.837Z" fill="black"/>
</svg>
